<?xml version="1.0" encoding="UTF-8" standalone="no"?>
<svg width="306px" height="245px" viewBox="0 0 306 245" version="1.1" xmlns="http://www.w3.org/2000/svg" xmlns:xlink="http://www.w3.org/1999/xlink">
    <!-- Generator: Sketch 3.7.2 (28276) - http://www.bohemiancoding.com/sketch -->
    <title>On Light</title>
    <desc>Created with Sketch.</desc>
    <defs>
        <radialGradient cx="50%" cy="0%" fx="50%" fy="0%" r="100%" id="radialGradient-1">
            <stop stop-color="#17E1BA" offset="0%"></stop>
            <stop stop-color="#03AF8E" offset="100%"></stop>
        </radialGradient>
    </defs>
    <g id="Page-1" stroke="none" stroke-width="1" fill="none" fill-rule="evenodd">
        <g id="On-Light" transform="translate(-1.000000, -1.000000)">
            <polygon id="Path-12" stroke="#979797" fill="url(#radialGradient-1)" points="81.9317937 28.5619906 31.1638747 71.5667726 154.222233 194.222548 278.38322 72.2243243 225.049955 26.3544953"></polygon>
            <g id="Group" fill="url(#radialGradient-1)">
                <polygon id="Combined-Shape" points="157.574597 194.064516 278.159811 76.0725325 301.873022 96.3981415 303.771163 98.0251199 307.02512 94.2288369 305.126978 92.6018585 281.747333 72.562162 292.248449 62.2868763 294.035325 60.5384274 290.538427 56.9646749 288.751551 58.7131237 277.936423 69.2956683 232.091477 30 256.5 30 259 30 259 25 256.5 25 226.258144 25 200.126978 2.60185849 198.228837 0.97488006 194.97488 4.77116307 196.873022 6.39814151 218.57519 25 89.4248102 25 111.126978 6.39814151 113.02512 4.77116307 109.771163 0.97488006 107.873022 2.60185849 81.7418565 25 51.5 25 49 25 49 30 51.5 30 75.9085231 30 30.0635768 69.2956683 19.2484488 58.7131237 17.4615726 56.9646749 13.9646749 60.5384274 15.7515512 62.2868763 26.2526674 72.562162 2.87302157 92.6018585 0.97488006 94.2288369 4.22883693 98.0251199 6.12697843 96.3981415 29.8401889 76.0725325 150.425403 194.064516 102.751551 240.713124 100.964675 242.461573 104.461573 246.035325 106.248449 244.286876 154 197.56224 201.751551 244.286876 203.538427 246.035325 207.035325 242.461573 205.248449 240.713124 157.574597 194.064516"></polygon>
            </g>
            <path d="M169.614,52.507 C170.172,56.134 170.358,59.854 170.358,66.271 L170.358,81.709 L139.017,81.709 L139.017,66.271 C139.017,60.505 139.203,56.878 139.761,52.507 L119.766,52.507 C120.324,56.506 120.51,59.854 120.51,66.271 L120.51,116.119 C120.51,122.629 120.324,126.07 119.766,129.883 L139.761,129.883 C139.203,125.698 139.017,122.164 139.017,116.119 L139.017,98.077 L170.358,98.077 L170.358,116.119 C170.358,122.536 170.172,125.977 169.614,129.883 L189.609,129.883 C189.051,125.326 188.865,122.164 188.865,116.119 L188.865,66.271 C188.865,59.761 189.051,56.32 189.609,52.507 L169.614,52.507 Z" id="H" fill="#FFFFFF"></path>
        </g>
    </g>
</svg>