<?xml version="1.0" encoding="UTF-8" standalone="no"?>
<svg width="306px" height="245px" viewBox="0 0 306 245" version="1.1" xmlns="http://www.w3.org/2000/svg" xmlns:xlink="http://www.w3.org/1999/xlink">
    <!-- Generator: Sketch 3.7.2 (28276) - http://www.bohemiancoding.com/sketch -->
    <title>On Dark</title>
    <desc>Created with Sketch.</desc>
    <defs></defs>
    <g id="Page-1" stroke="none" stroke-width="1" fill="none" fill-rule="evenodd">
        <g id="On-Dark" transform="translate(-1.000000, -1.000000)" fill="#FFFFFF">
            <g id="Group">
                <path d="M81.767919,29.2074953 L31,72.2122773 L154.058358,194.868053 L278.219345,72.8698291 L224.88608,27 L81.767919,29.2074953 Z M169.614,52.507 C170.172,56.134 170.358,59.854 170.358,66.271 L170.358,81.709 L139.017,81.709 L139.017,66.271 C139.017,60.505 139.203,56.878 139.761,52.507 L119.766,52.507 C120.324,56.506 120.51,59.854 120.51,66.271 L120.51,116.119 C120.51,122.629 120.324,126.07 119.766,129.883 L139.761,129.883 C139.203,125.698 139.017,122.164 139.017,116.119 L139.017,98.077 L170.358,98.077 L170.358,116.119 C170.358,122.536 170.172,125.977 169.614,129.883 L189.609,129.883 C189.051,125.326 188.865,122.164 188.865,116.119 L188.865,66.271 C188.865,59.761 189.051,56.32 189.609,52.507 L169.614,52.507 Z" id="Combined-Shape"></path>
                <polygon id="Line" points="256.5 25 51.5 25 49 25 49 30 51.5 30 256.5 30 259 30 259 25"></polygon>
                <polygon id="Line" points="196.873022 6.39814151 301.873022 96.3981415 303.771163 98.0251199 307.02512 94.2288369 305.126978 92.6018585 200.126978 2.60185849 198.228837 0.97488006 194.97488 4.77116307"></polygon>
                <polygon id="Line" points="288.751551 58.7131237 102.751551 240.713124 100.964675 242.461573 104.461573 246.035325 106.248449 244.286876 292.248449 62.2868763 294.035325 60.5384274 290.538427 56.9646749"></polygon>
                <polygon id="Line" points="51.5 30 256.5 30 259 30 259 25 256.5 25 51.5 25 49 25 49 30"></polygon>
                <polygon id="Line" points="107.873022 2.60185849 2.87302157 92.6018585 0.97488006 94.2288369 4.22883693 98.0251199 6.12697843 96.3981415 111.126978 6.39814151 113.02512 4.77116307 109.771163 0.97488006"></polygon>
                <polygon id="Line" points="15.7515512 62.2868763 201.751551 244.286876 203.538427 246.035325 207.035325 242.461573 205.248449 240.713124 19.2484488 58.7131237 17.4615726 56.9646749 13.9646749 60.5384274"></polygon>
            </g>
        </g>
    </g>
</svg>